<svg width="93" height="57" viewBox="0 0 93 57" fill="none" xmlns="http://www.w3.org/2000/svg">
<path d="M29.75 35.7656C29.75 36.9062 29.2734 38.0312 28.3203 39.1406C27.1641 40.5156 24.875 41.5312 21.4531 42.1875C21.3281 42.2188 21.2266 42.2344 21.1484 42.2344C20.9141 42.2344 20.7734 42.1172 20.7266 41.8828C20.7734 42.7734 20.9453 43.9844 21.2422 45.5156C21.4766 46.6719 21.5938 47.2812 21.5938 47.3438C21.5938 47.7812 21.3438 48 20.8438 48C20.5781 48 20.3906 47.8672 20.2812 47.6016C20.125 47.2422 19.9922 46.6406 19.8828 45.7969C19.8047 45.1719 19.7266 44.5469 19.6484 43.9219C19.3047 42.0625 18.8047 39.2812 18.1484 35.5781C17.7578 33.3281 17.5625 32.0625 17.5625 31.7812C17.5625 31.5156 17.8281 31.3828 18.3594 31.3828C18.5156 31.3828 18.6328 31.4375 18.7109 31.5469C18.8047 31.6406 18.9688 32.3281 19.2031 33.6094C19.3281 34.4062 19.4609 35.1953 19.6016 35.9766C19.8984 34.4922 20.4141 33.2891 21.1484 32.3672C22.0547 31.2422 23.1875 30.6797 24.5469 30.6797C25.8906 30.6797 27.0938 31.1953 28.1562 32.2266C29.2188 33.2578 29.75 34.4375 29.75 35.7656ZM24.4766 32.0156C23.2109 32.0156 22.1719 32.8359 21.3594 34.4766C20.8438 35.5078 20.5859 37.0156 20.5859 39C20.5859 39.6719 20.6172 40.4141 20.6797 41.2266C20.7266 41.0859 20.8984 40.9766 21.1953 40.8984C22.2422 40.6172 23.2969 40.3438 24.3594 40.0781C25.5625 39.6719 26.4922 39.125 27.1484 38.4375C28.0078 37.5469 28.4375 36.6641 28.4375 35.7891C28.4375 34.8359 28.0156 33.9688 27.1719 33.1875C26.3438 32.4062 25.4453 32.0156 24.4766 32.0156ZM40.4141 44.6484C40.4141 45.7109 39.8203 46.5391 38.6328 47.1328C37.6797 47.5859 36.6094 47.8125 35.4219 47.8125C34.0938 47.8125 33 47.5469 32.1406 47.0156C31.125 46.3594 30.6172 45.4062 30.6172 44.1562C30.6172 42.7344 31.5469 41.0625 33.4062 39.1406C33.1094 39.0156 32.9609 38.8203 32.9609 38.5547C32.9609 38.3672 33.0312 38.2031 33.1719 38.0625C33.3125 37.9219 33.4688 37.8516 33.6406 37.8516C33.75 37.8516 33.8672 37.8828 33.9922 37.9453C35.5391 38.6797 36.8984 39.5703 38.0703 40.6172C39.6328 42.0078 40.4141 43.3516 40.4141 44.6484ZM34.6016 39.8203C32.7891 41.6172 31.8828 43.0859 31.8828 44.2266C31.8828 45.0391 32.3203 45.6406 33.1953 46.0312C33.8516 46.3281 34.6328 46.4766 35.5391 46.4766C36.3672 46.4766 37.1094 46.3438 37.7656 46.0781C38.6562 45.7031 39.1016 45.1641 39.1016 44.4609C39.1016 43.1641 37.6016 41.6172 34.6016 39.8203ZM51.0547 44.6484C51.0547 45.7109 50.4609 46.5391 49.2734 47.1328C48.3203 47.5859 47.25 47.8125 46.0625 47.8125C44.7344 47.8125 43.6406 47.5469 42.7812 47.0156C41.7656 46.3594 41.2578 45.4062 41.2578 44.1562C41.2578 42.7344 42.1875 41.0625 44.0469 39.1406C43.75 39.0156 43.6016 38.8203 43.6016 38.5547C43.6016 38.3672 43.6719 38.2031 43.8125 38.0625C43.9531 37.9219 44.1094 37.8516 44.2812 37.8516C44.3906 37.8516 44.5078 37.8828 44.6328 37.9453C46.1797 38.6797 47.5391 39.5703 48.7109 40.6172C50.2734 42.0078 51.0547 43.3516 51.0547 44.6484ZM45.2422 39.8203C43.4297 41.6172 42.5234 43.0859 42.5234 44.2266C42.5234 45.0391 42.9609 45.6406 43.8359 46.0312C44.4922 46.3281 45.2734 46.4766 46.1797 46.4766C47.0078 46.4766 47.75 46.3438 48.4062 46.0781C49.2969 45.7031 49.7422 45.1641 49.7422 44.4609C49.7422 43.1641 48.2422 41.6172 45.2422 39.8203ZM54.9219 48.2344C54.9219 48.6875 54.6953 48.9141 54.2422 48.9141C54.0078 48.9141 53.8438 48.8594 53.75 48.75C53.5781 48.5625 53.3672 47.1875 53.1172 44.625C52.7734 41.2031 52.6016 37.5 52.6016 33.5156C52.6016 33.0781 52.8281 32.8594 53.2812 32.8594C53.5469 32.8594 53.7422 32.9297 53.8672 33.0703C53.8828 33.1016 53.9219 34.4688 53.9844 37.1719C54.0156 39.375 54.1719 41.8125 54.4531 44.4844C54.4688 44.7031 54.5625 45.3281 54.7344 46.3594C54.8594 47.1719 54.9219 47.7969 54.9219 48.2344Z" fill="#E5E5E5"/>
<path d="M62.4617 27.3863C63.1555 27.7303 63.7873 28.0345 64.4148 28.3564C67.0025 29.6295 69.2832 31.4467 71.1002 33.6831C73.5525 36.8182 73.7912 40.359 71.816 43.8248C70.7827 45.5733 69.3933 47.086 67.7376 48.2652C64.5252 50.6639 60.871 52.1631 57.0798 53.3449C51.5372 55.0384 45.8048 56.0367 40.015 56.3169C33.7547 56.6633 27.4753 56.3678 21.2755 55.435C16.7464 54.7515 12.2968 53.7064 8.12999 51.7619C6.45961 51.0079 4.89053 50.048 3.45947 48.9045C-0.234526 45.8444 -1.00779 41.1218 1.32084 36.9284C2.51389 34.8926 4.07857 33.0979 5.93392 31.6371C10.2465 28.0522 15.244 25.8033 20.5508 24.1718C27.777 21.9483 35.3254 20.9483 42.8827 21.2131C47.9376 21.3718 52.944 21.8833 57.8177 23.2723C59.2626 23.6824 60.6501 24.2821 62.0552 24.8244C62.4048 24.9648 62.7323 25.1549 63.0273 25.3888C63.8227 26.0062 63.7785 26.5397 62.908 27.1306C62.7648 27.2252 62.6158 27.3106 62.4617 27.3863V27.3863ZM40.8103 23.4178V23.2943C40.532 23.2943 40.2492 23.2503 39.9708 23.2547C33.8369 23.2967 27.739 24.1947 21.8543 25.9224C16.711 27.4437 11.8372 29.5293 7.61742 32.9158C5.88281 34.2267 4.40703 35.8474 3.26505 37.6957C1.22363 41.2012 1.87759 45.0374 5.0767 47.5288C6.27773 48.4363 7.57769 49.2055 8.95185 49.8217C12.6458 51.5414 16.5873 52.4674 20.5862 53.1861C26.3108 54.1376 32.116 54.5187 37.9161 54.3238C44.712 54.2023 51.4491 53.0424 57.8928 50.8844C60.9329 49.8438 63.8624 48.5606 66.465 46.6337C68.0966 45.5036 69.4231 43.989 70.3269 42.2242C71.3123 40.187 71.3874 38.1322 70.243 36.1391C69.7902 35.3664 69.2489 34.6487 68.6302 34.0005C66.728 32.0223 64.4288 30.4671 61.8829 29.4367C58.7183 28.0894 55.424 27.0684 52.0514 26.3898C47.5444 25.477 43.0108 25.0405 38.4375 25.9488C38.215 26.0229 37.9758 26.0321 37.7482 25.9753C37.4345 25.821 37.028 25.5873 36.9573 25.3095C36.9504 25.1349 36.9829 24.961 37.0525 24.8007C37.1221 24.6404 37.227 24.4978 37.3594 24.3835C37.6665 24.1681 38.0185 24.0249 38.3889 23.9646C39.1931 23.7706 40.0017 23.5986 40.8103 23.4178V23.4178ZM54.95 24.8509L61.3836 26.9101C59.4394 25.6225 57.2477 25.089 54.9677 24.8465L54.95 24.8509Z" fill="#E5E5E5"/>
<path d="M82.4548 26.7052L85.7973 27.3467C86.5351 27.4943 87.2793 27.6098 87.9914 27.8279C88.3386 27.9033 88.6419 28.1128 88.8354 28.4108C89.0288 28.7088 89.0967 29.0711 89.0243 29.419C89.0155 29.591 88.9721 29.7596 88.8967 29.9145C88.8214 30.0694 88.7156 30.2076 88.5856 30.3208C88.4557 30.4339 88.3043 30.5197 88.1405 30.5731C87.9767 30.6265 87.8038 30.6464 87.6322 30.6315C87.0175 30.6227 86.4042 30.5691 85.7973 30.4711C83.3786 30.0862 80.96 29.6563 78.5413 29.2842C76.469 28.9699 75.8082 27.892 76.7321 25.9866C77.8869 23.5936 79.1636 21.2583 80.4146 18.9295C80.7996 18.2045 81.409 17.7041 82.2495 18.1275C83.0899 18.5509 83.1477 19.2374 82.8141 20.0522C82.4804 20.867 82.1725 21.6882 81.7491 22.8494C82.2305 22.6655 82.6998 22.4512 83.1541 22.2078C85.3226 20.79 87.4782 19.3529 89.6402 17.9222C90.0189 17.6332 90.4276 17.3859 90.8592 17.1844C91.6098 16.9086 92.3989 16.8893 92.8288 17.7105C93.2586 18.5317 92.8288 19.077 92.1038 19.5582C89.281 21.4829 86.4838 23.4076 83.6802 25.3707C83.2375 25.6723 82.8141 26.0123 82.397 26.3074L82.4548 26.7052Z" fill="#E5E5E5"/>
<path d="M66.5954 11.4939C67.1344 11.0063 67.6669 10.5123 68.2186 10.0375C68.7703 9.56279 69.4375 8.92765 70.0984 8.45289C70.2315 8.33991 70.3864 8.25531 70.5534 8.20426C70.7204 8.15321 70.8961 8.1368 71.0696 8.15602C71.2432 8.17524 71.411 8.22969 71.5628 8.31604C71.7146 8.40239 71.8472 8.51882 71.9525 8.6582C72.1951 8.90837 72.3308 9.24316 72.3308 9.59166C72.3308 9.94015 72.1951 10.2749 71.9525 10.5251C71.6999 10.8552 71.4233 11.1661 71.1249 11.4554C69.0975 13.4891 67.0574 15.51 65.0365 17.5566C63.4197 19.1926 62.0596 19.0001 61.4181 16.8252C60.7059 14.4065 60.2376 11.9109 59.7244 9.44088C59.564 8.67742 59.6859 7.89474 60.629 7.6317C61.4245 7.40715 61.9121 7.81775 62.3162 8.97255C62.4959 9.53713 62.6627 10.1017 62.9578 11.0897C63.2254 10.5985 63.4611 10.0906 63.6635 9.5692C64.3051 7.33657 64.9146 5.07829 65.5369 2.85208C65.6857 2.19532 65.8874 1.55166 66.1399 0.9274C66.2477 0.594931 66.481 0.317678 66.7902 0.154702C67.0994 -0.00827318 67.46 -0.0440805 67.7952 0.0548896C68.6933 0.33076 68.8409 1.03647 68.6292 1.87049C68.0133 4.32125 67.3931 6.772 66.7687 9.22275C66.589 9.92847 66.4094 10.6406 66.2362 11.3463L66.5954 11.4939Z" fill="#E5E5E5"/>
<path d="M82.7048 49.8206C83.218 51.2577 83.6222 52.3419 83.9879 53.439C84.182 53.9472 84.3238 54.4739 84.4113 55.0108C84.4819 55.6524 84.2638 56.3645 83.5388 56.403C82.965 56.3751 82.4148 56.1662 81.967 55.8064C81.6847 55.5946 81.6077 55.0878 81.4666 54.7093C80.7609 52.7846 80.0552 50.8599 79.3687 48.9353C78.6822 47.0106 79.3687 45.5542 81.2934 45.1757C83.5581 44.7202 85.8741 44.4829 88.1709 44.1621C88.499 44.0611 88.85 44.0611 89.1781 44.1621C89.6529 44.4572 90.2495 44.8357 90.4035 45.3104C90.4519 45.4778 90.4621 45.6538 90.4333 45.8256C90.4044 45.9974 90.3373 46.1605 90.2369 46.3028C90.1364 46.4451 90.0053 46.5631 89.8531 46.6478C89.7009 46.7326 89.5316 46.782 89.3578 46.7924C88.2928 46.9913 87.2021 47.017 85.7714 47.1517C86.0947 47.4478 86.4424 47.716 86.8108 47.9537C88.3954 48.7492 90.0186 49.5062 91.584 50.3082C92.0269 50.4827 92.4178 50.7676 92.7195 51.1358C92.8364 51.3258 92.9117 51.5383 92.9405 51.7595C92.9692 51.9807 92.9508 52.2054 92.8863 52.4189C92.763 52.6053 92.5978 52.7603 92.404 52.8717C92.2103 52.9831 91.9932 53.0477 91.77 53.0605C91.1701 52.9738 90.589 52.7873 90.0506 52.5087C88.126 51.694 86.1628 50.8471 84.2125 50.0452C83.7165 49.9313 83.2124 49.8562 82.7048 49.8206Z" fill="#E5E5E5"/>
</svg>
